<?xml version="1.0" standalone="no"?>
<!DOCTYPE svg PUBLIC "-//W3C//DTD SVG 20010904//EN"
 "http://www.w3.org/TR/2001/REC-SVG-20010904/DTD/svg10.dtd">
<svg version="1.0" xmlns="http://www.w3.org/2000/svg"
 width="260.000000pt" height="260.000000pt" viewBox="0 0 260.000000 260.000000"
 preserveAspectRatio="xMidYMid meet">
<metadata>
Created by potrace 1.11, written by Peter Selinger 2001-2013
</metadata>
<g transform="translate(0.000000,260.000000) scale(0.100000,-0.100000)"
fill="#000000" stroke="none">
<path d="M1896 2403 c-22 -87 -43 -167 -47 -178 -4 -11 -19 -63 -33 -115 -14
-52 -39 -146 -56 -207 -17 -62 -33 -121 -35 -132 -2 -10 -13 -50 -24 -88 -12
-39 -21 -73 -21 -76 0 -3 27 -3 60 0 87 8 181 -19 230 -66 31 -29 37 -41 33
-64 -3 -15 -8 -27 -12 -27 -4 0 -5 -16 -3 -36 3 -27 -1 -41 -18 -59 -13 -14
-20 -31 -17 -40 9 -23 -12 -61 -40 -74 -25 -12 -46 -15 -143 -26 -30 -3 -58
-11 -62 -18 -27 -50 -137 -191 -187 -241 -50 -52 -64 -73 -84 -136 -32 -95
-111 -314 -130 -360 -31 -73 -30 -75 12 -103 48 -32 88 -83 95 -121 4 -23 -1
-34 -23 -55 -16 -15 -31 -36 -35 -48 -6 -20 -24 -32 -54 -39 -12 -2 -51 -43
-52 -54 0 -3 75 -5 166 -5 l166 0 54 150 c30 82 50 151 45 153 -25 8 -61 45
-61 62 0 11 -12 31 -26 45 -22 22 -25 32 -19 63 9 49 25 72 74 107 30 20 58
30 96 33 l55 4 79 247 c188 582 280 898 277 959 -2 37 -9 50 -54 95 -67 67
-78 112 -38 152 14 14 29 37 32 51 9 36 57 57 115 52 l48 -5 25 106 c14 58 27
120 30 136 3 17 10 46 16 65 5 19 10 38 10 41 0 3 -91 7 -203 8 l-202 2 -39
-158z"/>
<path d="M1585 2381 c-50 -13 -127 -57 -170 -96 l-39 -36 -66 21 c-189 62
-394 18 -539 -115 l-58 -54 -49 15 c-27 9 -83 16 -124 17 -125 2 -206 -49
-258 -161 -47 -104 -13 -220 98 -330 69 -68 112 -93 220 -127 50 -16 91 -36
100 -48 120 -166 349 -249 553 -202 185 43 356 206 397 380 7 28 28 106 47
175 19 69 36 132 38 140 2 8 7 24 10 35 l8 20 -16 -20 c-9 -11 -17 -24 -17
-28 0 -5 -16 -29 -35 -54 -29 -38 -36 -43 -41 -27 -18 57 -44 106 -86 161
l-47 63 56 40 c90 64 145 65 187 4 l23 -34 26 97 c17 61 23 101 17 108 -35 42
-167 74 -235 56z m-951 -451 c29 -10 28 -7 10 -105 -7 -35 -6 -122 1 -155 7
-30 6 -32 -16 -25 -173 53 -256 166 -193 263 8 13 25 27 37 33 25 10 122 4
161 -11z m822 -131 c24 -40 -7 -86 -50 -75 -36 9 -46 53 -18 77 21 17 57 16
68 -2z m-216 -57 c29 -21 86 -131 94 -183 11 -75 -19 -122 -94 -145 -113 -34
-168 27 -175 196 -2 42 2 76 12 97 27 58 107 76 163 35z m-306 -68 c23 -23 20
-51 -8 -69 -39 -26 -85 9 -69 53 13 35 51 43 77 16z"/>
<path d="M2145 2146 c-18 -13 -17 -15 18 -50 46 -44 47 -51 4 -26 -27 16 -36
17 -57 7 -14 -7 -26 -19 -28 -27 -1 -9 24 -43 57 -77 49 -51 59 -67 57 -92 -1
-17 1 -36 5 -43 11 -18 64 8 100 50 29 32 31 40 26 84 -9 73 -49 153 -86 172
-37 20 -71 20 -96 2z"/>
<path d="M1694 1549 c-11 -6 -37 -38 -57 -72 -45 -78 -87 -122 -160 -170 -71
-47 -146 -81 -229 -103 -124 -32 -294 -2 -411 72 l-52 33 -13 -31 c-88 -208
-24 -414 147 -473 92 -32 239 -29 321 7 150 65 261 164 385 343 31 44 62 83
70 88 9 4 37 10 63 13 106 11 131 16 142 29 16 19 -2 43 -47 62 -18 7 -33 14
-33 16 0 1 22 2 50 1 58 -1 93 24 70 51 -7 8 -18 15 -24 15 -6 1 -24 7 -41 15
-22 10 -24 13 -10 13 105 -5 123 32 37 73 -53 25 -173 36 -208 18z"/>
<path d="M1882 734 l-33 -116 25 -32 c13 -18 26 -43 28 -57 5 -36 20 -28 48
27 20 39 25 64 25 124 0 64 -4 82 -28 123 -15 26 -29 47 -30 47 -1 0 -17 -52
-35 -116z"/>
<path d="M772 687 c-3 -139 9 -221 47 -309 19 -44 238 -278 260 -278 16 0 13
33 -4 66 -19 37 -19 97 -1 133 15 28 83 81 104 81 7 0 12 3 12 7 0 12 -103
103 -174 154 -38 27 -64 49 -57 49 34 0 188 -90 245 -142 23 -21 36 -23 36 -5
0 6 29 89 64 182 35 94 62 171 61 173 -1 1 -24 -6 -51 -16 -184 -72 -378 -69
-490 9 -24 16 -44 29 -46 29 -2 0 -4 -60 -6 -133z"/>
<path d="M1694 597 c-54 -31 -76 -57 -77 -89 -2 -29 2 -33 24 -36 22 -3 25 -7
21 -27 -8 -42 3 -56 34 -45 21 8 25 8 21 -4 -9 -24 17 -49 41 -42 28 9 89 88
97 127 18 83 -87 159 -161 116z"/>
<path d="M1175 338 c-92 -50 -95 -126 -8 -225 41 -47 83 -40 83 14 0 20 4 22
30 16 31 -6 34 -2 31 43 -2 17 4 22 24 22 14 0 29 2 32 6 15 15 -29 78 -74
106 -49 31 -84 37 -118 18z"/>
<path d="M1147 63 c-13 -12 -7 -21 18 -26 25 -4 25 -4 9 14 -19 22 -18 21 -27
12z"/>
</g>
</svg>
