<?xml version="1.0" standalone="no"?>
<!DOCTYPE svg PUBLIC "-//W3C//DTD SVG 20010904//EN"
 "http://www.w3.org/TR/2001/REC-SVG-20010904/DTD/svg10.dtd">
<svg version="1.0" xmlns="http://www.w3.org/2000/svg"
 width="268.000000pt" height="268.000000pt" viewBox="0 0 268.000000 268.000000"
 preserveAspectRatio="xMidYMid meet">
<metadata>
Created by potrace 1.11, written by Peter Selinger 2001-2013
</metadata>
<g transform="translate(0.000000,268.000000) scale(0.100000,-0.100000)"
fill="#000000" stroke="none">
<path d="M710 2107 c-172 -39 -285 -181 -259 -324 8 -41 6 -53 -21 -106 -34
-69 -36 -92 -14 -167 12 -42 13 -59 4 -79 -6 -14 -14 -55 -17 -91 -7 -87 21
-163 79 -216 l41 -37 -2 -106 c-4 -168 30 -268 126 -372 90 -97 216 -159 400
-196 126 -25 471 -25 598 0 238 48 394 145 472 294 44 84 58 152 56 276 l-1
109 35 31 c75 66 102 181 69 291 -13 41 -13 53 0 88 25 72 12 161 -31 208 -12
14 -13 26 -4 71 19 95 -27 197 -118 263 -185 134 -466 80 -580 -112 -23 -39
-28 -43 -52 -35 -34 11 -258 10 -293 0 -24 -8 -28 -5 -47 31 -30 58 -121 137
-189 162 -70 27 -178 34 -252 17z m176 -132 c60 -19 119 -60 145 -101 l19 -31
-61 -38 c-122 -75 -162 -133 -122 -177 27 -30 74 -23 129 21 112 88 225 131
349 131 122 0 225 -37 343 -124 66 -49 108 -58 136 -30 19 19 21 64 4 85 -18
21 -96 81 -140 108 -21 12 -38 25 -38 28 0 3 7 17 16 32 37 62 158 116 245
108 89 -8 173 -62 198 -129 10 -28 -1 -92 -19 -103 -6 -4 -10 -21 -10 -39 0
-24 10 -41 40 -71 45 -44 49 -64 20 -120 -25 -49 -25 -62 1 -127 14 -37 19
-67 16 -96 -6 -59 -22 -74 -38 -36 -6 16 -29 66 -50 111 -58 125 -103 159
-149 113 -29 -29 -25 -60 19 -148 109 -215 134 -428 66 -563 -75 -147 -242
-226 -533 -250 -403 -34 -692 61 -789 259 -26 53 -28 65 -28 182 1 115 3 133
33 218 18 52 50 128 71 169 43 83 43 118 0 141 -54 30 -99 -21 -165 -185 -16
-40 -32 -73 -35 -73 -4 0 -12 14 -19 30 -15 36 -8 89 20 152 l20 46 -25 53
c-14 30 -25 60 -25 67 0 8 20 33 45 58 25 24 45 50 45 59 0 9 -9 33 -20 55
-26 52 -25 88 5 132 57 84 170 117 281 83z"/>
<path d="M1263 1348 c-52 -37 -76 -98 -81 -209 -5 -118 10 -159 69 -186 45
-21 47 -26 17 -48 -43 -30 -96 -38 -165 -24 -55 11 -66 11 -74 -2 -15 -22 -6
-53 18 -64 13 -5 27 -21 32 -36 13 -39 69 -97 115 -121 57 -30 194 -37 264
-14 58 20 134 82 152 126 7 16 24 36 39 43 30 14 39 48 16 67 -12 10 -27 10
-75 1 -68 -14 -121 -4 -164 30 l-27 22 39 17 c53 24 72 67 72 162 0 101 -23
173 -70 220 -34 35 -43 38 -91 38 -40 0 -63 -6 -86 -22z"/>
<path d="M919 1325 c-72 -39 -88 -163 -19 -153 16 2 27 13 33 33 14 43 26 55
57 55 31 0 48 -16 59 -57 5 -20 15 -29 33 -31 60 -7 61 79 1 136 -30 28 -41
32 -86 32 -29 -1 -64 -7 -78 -15z"/>
<path d="M1617 1307 c-61 -57 -60 -142 1 -135 18 2 28 12 36 37 22 69 82 69
109 0 14 -35 19 -40 44 -37 25 3 28 7 31 46 3 39 -1 47 -36 83 -37 36 -44 39
-95 39 -49 0 -60 -4 -90 -33z"/>
</g>
</svg>
