<?xml version="1.0" encoding="UTF-8"?>
<svg width="21px" height="21px" viewBox="0 0 21 21" version="1.1" xmlns="http://www.w3.org/2000/svg" xmlns:xlink="http://www.w3.org/1999/xlink">
    <!-- Generator: Sketch 52.2 (67145) - http://www.bohemiancoding.com/sketch -->
    <title>icon__copy</title>
    <desc>Created with Sketch.</desc>
    <g id="Page-1" stroke="none" stroke-width="1" fill="none" fill-rule="evenodd">
        <g id="icon__copy" transform="translate(-2.000000, -2.000000)">
            <polygon id="Trim" points="0 0 25 0 25 25 0 25"></polygon>
            <path d="M16,17 L16,21.5 C16,22.3284271 15.3284271,23 14.5,23 L3.5,23 C2.67157288,23 2,22.3284271 2,21.5 L2,10.5 C2,9.67157288 2.67157288,9 3.5,9 L8,9 L8,14.5 C8,15.8807119 9.11928813,17 10.5,17 L16,17 Z" id="Trim" fill="#FFFFFF"></path>
            <path d="M10.5,2 L21.5,2 C22.3284271,2 23,2.67157288 23,3.5 L23,14.5 C23,15.3284271 22.3284271,16 21.5,16 L10.5,16 C9.67157288,16 9,15.3284271 9,14.5 L9,3.5 C9,2.67157288 9.67157288,2 10.5,2 Z" id="Trim" fill="#FFFFFF"></path>
        </g>
    </g>
</svg>