<?xml version="1.0" encoding="UTF-8"?>
<svg width="1026px" height="205px" viewBox="0 0 1026 205" version="1.1" xmlns="http://www.w3.org/2000/svg" xmlns:xlink="http://www.w3.org/1999/xlink">
    <!-- Generator: Sketch 52.4 (67378) - http://www.bohemiancoding.com/sketch -->
    <title>Combined Shape</title>
    <desc>Created with Sketch.</desc>
    <defs>
        <linearGradient x1="0%" y1="50%" x2="127.612287%" y2="50%" id="linearGradient-1">
            <stop stop-color="#4058CF" offset="0%"></stop>
            <stop stop-color="#C751C0" offset="50.1512825%"></stop>
            <stop stop-color="#FFCC70" offset="100%"></stop>
        </linearGradient>
    </defs>
    <g id="Page-1" stroke="none" stroke-width="1" fill="none" fill-rule="evenodd">
        <path d="M751.907692,104.848958 C733.815385,109.119792 715.723077,101.21875 706.461538,86.9114583 C698.707692,84.7760417 690.523077,81.5729167 690.523077,81.5729167 C690.523077,81.5729167 663.815385,65.5572917 674.584615,45.6979167 C683.846154,28.6145833 703.230769,35.234375 708.615385,37.3697917 C714.646154,30.109375 723.046154,24.5572917 732.953846,22.2083333 C743.076923,20.0729167 753.2,21.3541667 761.815385,25.625 C765.046154,21.78125 780.123077,6.61979167 796.276923,18.1510417 C797.138462,18.578125 797.784615,19.21875 798.430769,19.859375 L793.692308,37.3697917 C793.907692,36.0885417 793.692308,34.8072917 793.046154,33.7395833 C787.230769,23.9166667 777.969231,32.671875 772.584615,36.9427083 C772.584615,36.9427083 782.707692,46.5520833 783.784615,56.375 C783.784615,56.375 789.6,49.328125 792.4,42.7083333 L785.292308,68.9739583 C785.076923,69.1875 785.076923,69.1875 785.076923,69.1875 C782.707692,86.0572917 769.784615,100.791667 751.907692,104.848958 Z M764.4,60.4322917 C762.246154,60.859375 760.953846,62.9947917 761.384615,65.1302083 C762.030769,67.265625 763.969231,68.546875 766.123077,68.1197917 C768.276923,67.4791667 769.569231,65.5572917 769.138462,63.421875 C768.492308,61.2864583 766.553846,60.0052083 764.4,60.4322917 Z M736.615385,73.03125 C736.615385,73.03125 735.753846,93.53125 745.230769,93.53125 C754.492308,93.53125 765.261538,89.4739583 753.846154,69.1875 C753.846154,69.1875 750.184615,62.9947917 743.507692,64.4895833 C736.615385,65.984375 736.615385,73.03125 736.615385,73.03125 Z M722.830769,70.46875 C720.676923,70.8958333 719.384615,73.03125 719.815385,75.1666667 C720.461538,77.3020833 722.4,78.5833333 724.553846,78.15625 C726.707692,77.515625 728,75.59375 727.569231,73.4583333 C726.923077,71.3229167 724.984615,70.0416667 722.830769,70.46875 Z M703.661538,74.7395833 C700.215385,64.9166667 704.738462,51.6770833 704.738462,51.6770833 C698.061538,49.96875 686.430769,45.484375 684.492308,57.2291667 C682.553846,69.1875 703.661538,74.7395833 703.661538,74.7395833 Z M737.476923,143.927083 C715.938462,143.927083 703.446154,127.057292 714.861538,100.791667 C714.861538,100.791667 726.492308,110.828125 742.861538,110.828125 C748.676923,110.828125 754.923077,109.546875 761.6,106.34375 C761.6,106.34375 776.030769,100.151042 781.2,91.3958333 C786.369231,82.640625 786.369231,82.640625 786.369231,82.640625 C786.369231,82.640625 788.738462,80.71875 791.538462,80.71875 C792.184615,80.71875 793.261538,80.71875 794.553846,80.71875 C798,80.71875 802.953846,81.1458333 807.692308,84.7760417 C812.215385,88.1927083 807.476923,89.2604167 802.307692,89.2604167 C800.584615,89.2604167 798.646154,89.2604167 797.138462,89.046875 C796.276923,88.8333333 795.630769,88.8333333 795.630769,88.8333333 C796.061538,88.8333333 796.707692,89.046875 797.138462,89.046875 C800.584615,89.6875 809.630769,91.1822917 808.553846,94.3854167 C807.907692,96.3072917 804.892308,96.734375 801.876923,96.734375 C799.292308,96.734375 796.707692,96.3072917 795.2,96.09375 C794.553846,95.8802083 794.123077,95.8802083 794.123077,95.8802083 C794.123077,95.8802083 794.553846,96.09375 795.2,96.09375 C798,96.734375 805.323077,98.4427083 805.323077,102.072917 C805.323077,106.557292 790.030769,103.567708 787.015385,107.197917 C783.784615,110.828125 768.492308,140.083333 743.507692,143.5 C741.353846,143.713542 739.415385,143.927083 737.476923,143.927083 Z M796.707692,159.729167 C804.030769,164.640625 801.230769,171.046875 798,174.463542 C795.2,177.880208 794.123077,179.375 792.615385,179.375 C792.184615,179.375 791.538462,179.161458 790.892308,178.947917 C788.738462,177.880208 790.246154,174.890625 790.892308,173.822917 C790.892308,173.822917 788.523077,175.744792 786.8,175.744792 C785.507692,175.744792 784.861538,174.890625 785.292308,171.901042 L785.938462,169.552083 C785.938462,169.552083 785.292308,169.765625 784.430769,169.765625 C782.707692,169.765625 779.907692,169.125 782.276923,164 C782.276923,164 786.8,158.234375 792.184615,158.234375 C793.692308,158.234375 795.2,158.661458 796.707692,159.729167 Z M828.369231,32.03125 C833.538462,32.03125 835.692308,36.7291667 835.692308,36.7291667 C835.692308,36.7291667 841.292308,46.3385417 838.707692,52.1041667 C836.769231,55.9479167 832.246154,58.9375 830.092308,58.9375 C829.015385,58.9375 828.369231,58.296875 828.8,57.015625 C829.876923,52.7447917 827.076923,49.7552083 822.769231,45.9114583 C818.461538,42.0677083 818.892308,39.71875 821.692308,38.4375 C822.123077,38.2239583 822.553846,38.2239583 822.984615,38.2239583 C825.784615,38.2239583 829.661538,41.4270833 829.661538,41.4270833 C829.661538,41.4270833 829.661538,40.5729167 827.507692,38.4375 C825.353846,36.515625 820.615385,33.3125 826.861538,32.2447917 C827.507692,32.03125 827.938462,32.03125 828.369231,32.03125 Z M800.369231,156.739583 L805.753846,137.947917 C816.738462,150.333333 807.907692,165.494792 805.107692,167.203125 C805.323077,166.5625 805.107692,165.921875 805.107692,165.28125 C804.892308,163.786458 804.246154,161.864583 802.738462,159.942708 C801.661538,158.020833 800.369231,156.739583 800.369231,156.739583 Z M749.107692,200.729167 C747.6,200.729167 746.523077,199.020833 743.723077,195.390625 C740.061538,190.692708 738.338462,185.567708 745.446154,180.65625 C746.953846,179.588542 748.461538,179.161458 749.969231,179.161458 C755.353846,179.161458 759.876923,184.927083 759.876923,184.927083 C763.753846,189.838542 761.384615,190.692708 759.230769,190.692708 C758.153846,190.692708 757.076923,190.479167 757.076923,190.479167 L757.507692,192.401042 C757.938462,195.390625 757.076923,196.244792 756,196.244792 C754.276923,196.244792 751.907692,194.322917 751.907692,194.322917 C752.553846,195.390625 753.2,198.807292 751.046154,200.088542 C750.184615,200.515625 749.753846,200.729167 749.107692,200.729167 Z M825.138462,56.1614583 C824.707692,57.65625 824.923077,58.9375 825.569231,59.7916667 C815.876923,94.3854167 804.892308,128.765625 796.061538,155.244792 C794.769231,154.817708 793.692308,154.604167 792.4,154.604167 C785.507692,154.604167 780.338462,161.010417 779.692308,161.651042 L779.476923,162.078125 L779.261538,162.505208 C777.538462,165.921875 777.538462,168.697917 778.830769,170.833333 C779.261538,171.473958 780.338462,172.541667 781.846154,173.182292 C781.630769,174.463542 781.846154,176.385417 783.138462,177.880208 C784.215385,178.947917 785.507692,179.588542 787.015385,179.588542 C787.015385,180.015625 787.230769,180.229167 787.446154,180.442708 C782.061538,195.604167 778.615385,205 778.615385,205 L743.076923,204.359375 L743.723077,201.583333 C745.230769,203.291667 746.738462,204.359375 748.892308,204.359375 C750.4,204.359375 751.692308,203.71875 752.553846,203.291667 C753.846154,202.4375 754.707692,201.369792 755.353846,199.875 C755.569231,199.875 755.569231,199.875 755.569231,199.875 C757.292308,199.875 758.584615,199.234375 759.661538,198.166667 C760.523077,197.098958 760.953846,195.604167 760.953846,194.322917 C763.323077,193.895833 764.4,192.401042 764.830769,191.546875 C766.769231,188.130208 763.753846,184.5 762.676923,183.005208 C762.246154,182.364583 758.8,178.307292 754.061538,176.598958 C759.015385,164.213542 764.184615,149.90625 769.138462,134.744792 C778.4,126.630208 784.646154,117.020833 787.876923,112.109375 C788.523077,111.041667 789.169231,109.973958 789.6,109.546875 C790.676923,109.119792 794.338462,108.90625 796.492308,108.692708 C799.076923,108.479167 801.446154,108.265625 803.384615,107.838542 C808.338462,106.557292 808.984615,103.140625 808.984615,101.859375 C808.984615,101.005208 808.769231,99.9375 808.338462,99.0833333 C809.846154,98.2291667 811.138462,97.1614583 811.784615,95.2395833 C812.215385,93.7447917 812,92.0364583 811.138462,90.7552083 C811.784615,90.1145833 812.430769,89.4739583 812.646154,88.6197917 C813.292308,86.9114583 813.076923,84.3489583 809.630769,81.7864583 C805.538462,78.5833333 800.369231,77.0885417 794.338462,77.0885417 C793.476923,77.0885417 792.830769,77.0885417 792.184615,77.0885417 C791.753846,77.0885417 791.323077,77.0885417 791.107692,77.0885417 C789.169231,77.0885417 787.661538,77.515625 786.369231,78.15625 C787.661538,73.4583333 788.953846,68.9739583 790.246154,64.4895833 C790.246154,64.4895833 790.030769,64.703125 790.030769,64.703125 L801.446154,23.0625 C805.107692,8.96875 807.261538,0 807.261538,0 L840,0.213541667 C838.061538,9.609375 835.692308,19.4322917 833.323077,29.2552083 C831.815385,28.6145833 830.092308,28.1875 828.153846,28.1875 C827.507692,28.1875 826.861538,28.4010417 826.215385,28.4010417 C824.923077,28.6145833 821.261538,29.2552083 820.184615,32.4583333 C819.969231,33.3125 819.969231,34.1666667 820.184615,35.0208333 C819.969231,35.0208333 819.969231,35.0208333 819.969231,35.0208333 C816.738462,36.515625 815.876923,38.6510417 815.661538,40.1458333 C815.230769,44.203125 818.892308,47.6197917 820.184615,48.6875 C824.923077,52.9583333 825.569231,54.2395833 825.138462,56.1614583 Z M737.046154,186.635417 C736.615385,189.838542 737.476923,193.255208 740.061538,196.671875 C739.415385,198.59375 738.984615,199.875 738.984615,199.875 C738.984615,199.875 725.2,186.635417 720.246154,181.083333 C715.292308,175.53125 713.784615,161.010417 713.784615,161.010417 L713.784615,155.458333 L714.430769,140.083333 C714.430769,140.083333 727.353846,157.380208 762.246154,142.21875 L750.830769,173.182292 C750.830769,173.182292 743.292308,163.359375 724.769231,158.020833 C734.892308,162.505208 744.584615,172.328125 748.030769,175.958333 C746.523077,176.385417 745.015385,176.8125 743.507692,177.880208 C739.630769,180.229167 737.476923,183.21875 737.046154,186.635417 Z M56.7,122.55 L80.1,133.35 C71.25,150.6 55.2,157.2 41.85,157.2 C21,157.2 0,145.05 0,120.9 L0,84.3 C0,60.3 21,48 42.3,48 C55.35,48 71.1,53.55 79.65,72.45 L57.75,81.3 C50.55,68.1 26.85,71.1 26.85,84.3 L26.85,120.9 C26.85,133.65 50.85,137.25 56.7,122.55 Z M87.3,120.75 L87.3,84.45 C87.3,60 109.2,48 131.25,48 C153.3,48 175.35,60.15 175.35,84.45 L175.35,120.75 C175.35,145.05 153.45,157.2 131.4,157.2 C109.35,157.2 87.3,145.05 87.3,120.75 Z M114.15,84.45 L114.15,120.75 C114.15,128.55 122.85,132.3 131.4,132.3 C139.95,132.3 148.5,128.4 148.5,120.75 L148.5,84.45 C148.5,76.2 139.65,72.45 130.95,72.45 C122.55,72.45 114.15,76.65 114.15,84.45 Z M189.6,155.7 L189.6,49.5 L216.6,49.5 L216.6,129.15 L259.8,129.15 L259.8,155.7 L189.6,155.7 Z M267,120.75 L267,84.45 C267,60 288.9,48 310.95,48 C333,48 355.05,60.15 355.05,84.45 L355.05,120.75 C355.05,145.05 333.15,157.2 311.1,157.2 C289.05,157.2 267,145.05 267,120.75 Z M293.85,84.45 L293.85,120.75 C293.85,128.55 302.55,132.3 311.1,132.3 C319.65,132.3 328.2,128.4 328.2,120.75 L328.2,84.45 C328.2,76.2 319.35,72.45 310.65,72.45 C302.25,72.45 293.85,76.65 293.85,84.45 Z M425.85,155.7 L401.25,121.95 L396.45,121.95 L396.45,155.7 L369.3,155.7 L369.3,49.5 L411.75,49.5 C433.65,49.5 450.6,59.55 451.2,84.45 C451.2,104.1 443.25,115.2 430.35,119.25 L459.3,155.7 L425.85,155.7 Z M396.45,98.85 L412.2,98.85 C429.15,98.85 429.15,74.55 412.2,74.55 L396.45,74.55 L396.45,98.85 Z M520.5,88.8 L549.3,49.5 L582.75,49.5 L540.75,100.8 L582.6,155.7 L548.55,155.7 L521.4,117.75 L520.5,118.95 L520.5,155.7 L493.5,155.7 L493.5,49.5 L520.5,49.5 L520.5,88.8 Z M580.65,120.75 L580.65,84.45 C580.65,60 602.55,48 624.6,48 C646.65,48 668.7,60.15 668.7,84.45 L668.7,120.75 C668.7,145.05 646.8,157.2 624.75,157.2 C602.7,157.2 580.65,145.05 580.65,120.75 Z M607.5,84.45 L607.5,120.75 C607.5,128.55 616.2,132.3 624.75,132.3 C633.3,132.3 641.85,128.4 641.85,120.75 L641.85,84.45 C641.85,76.2 633,72.45 624.3,72.45 C615.9,72.45 607.5,76.65 607.5,84.45 Z M854.3,155.7 L854.3,49.5 L881.3,49.5 L881.3,129.15 L924.5,129.15 L924.5,155.7 L854.3,155.7 Z M987.35,49.5 L1025.3,155.7 L996.5,155.7 L989.6,134.4 L961.25,134.4 L954.65,155.7 L925.85,155.7 L962.9,49.5 L987.35,49.5 Z M967.25,110.55 L983.15,110.55 L975.8,79.5 L975.05,79.5 L967.25,110.55 Z" id="Combined-Shape" fill="url(#linearGradient-1)" fill-rule="nonzero"></path>
    </g>
</svg>